<?xml version="1.0" encoding="utf-8"?>
<!-- Generator: Adobe Illustrator 24.3.0, SVG Export Plug-In . SVG Version: 6.00 Build 0)  -->
<svg version="1.1" id="katman_1" xmlns="http://www.w3.org/2000/svg" xmlns:xlink="http://www.w3.org/1999/xlink" x="0px" y="0px"
	 viewBox="0 0 420.9 130.9" style="enable-background:new 0 0 420.9 130.9;" xml:space="preserve">
<g>
	<path d="M26.1,0v130.7H0V0H26.1z"/>
	<path d="M72.6,99.2c5,4.7,11.3,7.1,18.5,7.1c2.2,0,4.7-0.3,7.4-0.7c10-2,17.6-6.4,23.1-13.5l17.7,14c-8.4,14-22.1,22.1-40.8,24
		c-2.6,0.3-5.3,0.4-7.7,0.4c-15.5,0-28.4-5.3-38.9-15.8c-10.4-10.4-15.6-23-15.6-37.7S41.5,50,51.9,39.6
		c10.4-10.5,23-15.8,37.7-15.8c9.3,0,18.1,2.4,26.3,7.1c12.7,7.2,20.7,17.1,24,29.4L72.6,99.2z M105.7,54.9c-4.6-3.4-9.6-5.4-15-5.8
		c-0.7,0-1.3-0.1-2-0.1c-4.3,0-8.4,1.1-12.3,3.3c-9.3,5.1-13.9,13.1-13.9,24.3c0,1.1,0,2.1,0.1,3.3L105.7,54.9z"/>
	<path d="M178.9,64.2c1.8,0.5,4.6,1.2,8.5,2.1c4.5,1.1,7.7,1.8,9.7,2.4c8,2.2,14.2,5.3,18.2,8.9c5.6,5.1,8.4,11.9,8.5,20.9
		c0,7.6-2.5,14.2-7.4,19.6c-4.3,5-10.2,8.5-17.7,10.8c-4.7,1.3-9.6,2.1-14.6,2.1c-5,0-9.8-0.7-14.6-2.1c-7.5-2.2-13.5-5.8-17.9-10.8
		c-4.9-5.5-7.2-12.1-7.2-19.8h26.1c0,2.9,1.6,5.3,4.7,7.1c2.6,1.4,5.5,2.1,8.7,2.1c3.7,0,6.8-0.9,9.5-2.6c2.6-1.8,3.9-3.9,4.1-6.4
		c0-3.2-2.8-5.5-8.3-7.4c-1.7-0.5-4.6-1.3-8.5-2.1c-4.3-0.9-7.6-1.7-9.7-2.2c-8-2.2-14-5.3-18.2-9.1c-5.5-5.1-8.3-11.9-8.4-20.9
		c0.1-7.7,2.5-14.3,7.4-19.7c4.3-4.9,10.4-8.4,17.7-10.6c4.6-1.4,9.5-2.1,14.6-2.1c5,0,10,0.7,14.6,2.1c7.5,2.2,13.4,5.8,17.7,10.8
		c4.9,5.5,7.4,12.1,7.4,19.8h-26.1v-0.1c0-2.5-1.3-4.6-3.9-6.4c-2.6-1.8-5.8-2.8-9.6-2.8c-3.7,0-6.8,0.9-9.5,2.6
		c-2.6,1.8-3.9,3.9-3.9,6.4C170.7,60,173.4,62.5,178.9,64.2z"/>
	<path d="M263.7,64.2c1.8,0.5,4.6,1.2,8.5,2.1c4.5,1.1,7.7,1.8,9.7,2.4c8,2.2,14.2,5.3,18.2,8.9c5.6,5.1,8.4,11.9,8.5,20.9
		c0,7.6-2.5,14.2-7.4,19.6c-4.3,5-10.2,8.5-17.7,10.8c-4.7,1.3-9.6,2.1-14.6,2.1c-5,0-9.8-0.7-14.6-2.1c-7.5-2.2-13.5-5.8-17.9-10.8
		c-4.9-5.5-7.2-12.1-7.2-19.8h26.1c0,2.9,1.6,5.3,4.7,7.1c2.6,1.4,5.5,2.1,8.7,2.1c3.7,0,6.8-0.9,9.5-2.6c2.6-1.8,3.9-3.9,4.1-6.4
		c0-3.2-2.8-5.5-8.3-7.4c-1.7-0.5-4.6-1.3-8.5-2.1c-4.3-0.9-7.6-1.7-9.7-2.2c-8-2.2-14-5.3-18.2-9.1c-5.5-5.1-8.3-11.9-8.4-20.9
		c0-7.7,2.5-14.3,7.4-19.7c4.3-4.9,10.4-8.4,17.7-10.6c4.6-1.4,9.5-2.1,14.6-2.1c5.1,0,9.8,0.7,14.6,2.1c7.5,2.2,13.4,5.8,17.7,10.8
		c4.9,5.5,7.4,12.1,7.4,19.8h-26.1v-0.1c0-2.5-1.3-4.6-3.9-6.4c-2.6-1.8-5.8-2.8-9.6-2.8c-3.7,0-6.8,0.9-9.5,2.6
		c-2.6,1.8-3.9,3.9-3.9,6.4C255.6,60,258.3,62.5,263.7,64.2z"/>
	<path d="M367.6,24.2c14.7,0,27.3,5.3,37.7,15.8c10.4,10.4,15.6,23,15.6,37.5c0,14.7-5.3,27.3-15.6,37.7
		c-10.4,10.4-23,15.6-37.7,15.6s-27.3-5.3-37.7-15.6c-10.4-10.4-15.6-23-15.6-37.7s5.3-27.2,15.6-37.5
		C340.4,29.4,352.9,24.2,367.6,24.2z M348.4,57.1c-5.3,5.6-7.9,12.5-7.9,20.3c0,8,2.6,14.8,7.9,20.5c5.3,5.6,11.7,8.4,19.2,8.4
		s13.9-2.8,19.2-8.4s7.9-12.5,7.9-20.5c0-7.9-2.6-14.7-7.9-20.3s-11.7-8.5-19.2-8.5C360.1,48.6,353.7,51.5,348.4,57.1z"/>
	<g>
		<g>
			<path d="M407,28C399.2,28,393,21.7,393,14S399.3,0.1,407,0.1s13.9,6.3,13.9,13.9C420.9,21.8,414.7,28,407,28z M407,3.2
				C401,3.2,396.1,8,396.1,14c0,5.9,4.9,10.9,10.9,10.9c6,0,10.9-4.9,10.9-10.9C417.8,8.1,413,3.2,407,3.2z"/>
		</g>
		<g>
			<path d="M401.2,21.3V6.8h5.5l0,0c1.3,0,2.6,0.3,3.5,0.9c0.9,0.5,1.6,1.3,2,2.2c0.3,0.7,0.5,1.4,0.5,2.2c0,0.8-0.1,1.6-0.5,2.2
				c-0.7,1.3-1.7,2.4-3.3,2.9c0.4,0.1,0.7,0.4,1.1,0.8l2.8,3.2h-3.8l-3-3.5h-1.7v3.5L401.2,21.3L401.2,21.3z M404.1,9.7V15h2.6
				c1.4,0,2.4-0.5,2.9-1.7c0.1-0.4,0.3-0.7,0.3-1.1s0-0.7-0.3-1.1c-0.4-0.9-1.4-1.4-2.9-1.4l0,0L404.1,9.7L404.1,9.7z"/>
		</g>
	</g>
</g>
</svg>
